<?xml version="1.0" encoding="UTF-8"?>
<svg width="785px" height="337px" viewBox="0 0 785 337" version="1.1" xmlns="http://www.w3.org/2000/svg" xmlns:xlink="http://www.w3.org/1999/xlink">
    <!-- Generator: Sketch 64 (93537) - https://sketch.com -->
    <title>Group</title>
    <desc>Created with Sketch.</desc>
    <g id="Page-1" stroke="none" stroke-width="1" fill="none" fill-rule="evenodd">
        <g id="Desktop" transform="translate(-904.000000, -294.000000)">
            <g id="Group" transform="translate(904.000000, 293.000000)">
                <path d="M182,42 C281.96354,42 363,28.6666446 363,12.2191173 C363,-4.2284101 281.96354,23.4545526 182,23.4545526 C82.0364603,23.4545526 1,-4.2284101 1,12.2191173 C1,28.6666446 82.0364603,42 182,42 Z" id="Oval" fill="#FFFFFF" transform="translate(182.000000, 24.500000) rotate(-2.000000) translate(-182.000000, -24.500000) "></path>
                <path d="M627.5,43 C714.484848,43 785,29.6666446 785,13.2191173 C785,-3.2284101 714.484848,24.4545526 627.5,24.4545526 C540.515152,24.4545526 470,-3.2284101 470,13.2191173 C470,29.6666446 540.515152,43 627.5,43 Z" id="Oval-Copy" fill="#FFFFFF" transform="translate(627.500000, 25.500000) rotate(-2.000000) translate(-627.500000, -25.500000) "></path>
                <g id="mouth" transform="translate(201.000000, 140.000000)">
                    <path d="M0,83 C23.2879837,78.7211763 39.2271406,71.560656 47.8174706,61.5184393 C56.4078005,51.4762226 64.1353104,30.9700761 71,0" id="Line-2" stroke="#000000" stroke-width="8" stroke-linecap="square"></path>
                    <path d="M361,112 C384.287984,107.721176 400.227141,100.560656 408.817471,90.5184393 C417.407801,80.4762226 425.13531,59.9700761 432,29" id="Line-2-Copy" stroke="#000000" stroke-width="8" stroke-linecap="square" transform="translate(396.500000, 70.500000) rotate(81.000000) translate(-396.500000, -70.500000) "></path>
                    <path d="M75.3433346,123.541831 C114.475138,125.286584 144.719562,124.235195 166.076606,120.387665 C187.43365,116.540135 224.189226,95.6481636 276.343335,57.711752 C268.253227,78.0284861 261.458343,92.919717 255.958683,102.385445 C250.459023,111.851172 242.709228,121.993481 232.709299,132.812371 L80.668714,148.711752 L75.3433346,123.541831 Z" id="Rectangle" fill="#FFFFFF" transform="translate(175.843335, 103.211752) rotate(30.000000) translate(-175.843335, -103.211752) "></path>
                    <path d="M75.3053502,71 C56.6624717,145.636076 66.0322615,186.296741 103.41472,192.981994 C140.797178,199.667247 201.535234,172.691571 285.628888,112.054966" id="Line-3" stroke="#000000" stroke-width="7" stroke-linecap="square"></path>
                    <path d="M62,54 C127.676561,95.3562466 177.509894,117.455361 211.5,120.297343 C245.490106,123.139325 295.323439,109.373544 361,79" id="Line" stroke="#000000" stroke-width="15" stroke-linecap="square"></path>
                </g>
            </g>
        </g>
    </g>
</svg>