<?xml version="1.0" encoding="UTF-8"?>
<svg width="95px" height="79px" viewBox="0 0 95 79" version="1.1" xmlns="http://www.w3.org/2000/svg" xmlns:xlink="http://www.w3.org/1999/xlink">
    <!-- Generator: Sketch 64 (93537) - https://sketch.com -->
    <title>responsive-design-for-variety-of-screens-formats</title>
    <desc>Created with Sketch.</desc>
    <g id="Page-1" stroke="none" stroke-width="1" fill="none" fill-rule="evenodd">
        <g id="Mobile" transform="translate(-137.000000, -295.000000)" fill="#000000" fill-rule="nonzero">
            <g id="responsive-design-for-variety-of-screens-formats" transform="translate(137.000000, 295.000000)">
                <path d="M32.6025367,58.0018342 L31.2270501,58.0018342 L21,58.0018342 L21,63 L63,63 L63,58.339325 L56.0517393,58 L32.6025367,58 L32.6025367,58.0018342 Z M38.7438151,61.070066 L24.2731383,61.070066 L24.2731383,60.1364637 L38.7438151,60.1364637 L38.7438151,61.070066 Z" id="Shape"></path>
                <path d="M0,79 L18,79 L18,48 L0,48 L0,79 Z M9.22831986,77.662193 C8.65516825,77.662193 8.19020625,77.1842725 8.19020625,76.5992829 C8.19020625,76.0083657 8.65697745,75.53415 9.22831986,75.53415 C9.8007478,75.53415 10.2653532,76.0083657 10.2653532,76.5992829 C10.2671572,77.1842725 9.8007478,77.662193 9.22831986,77.662193 Z M9.40200217,49.2829758 C9.64081534,49.2829758 9.83476058,49.4782193 9.83476058,49.7249597 C9.83476058,49.9713295 9.63900615,50.1706483 9.40200217,50.1706483 C9.163189,50.1706483 8.96743457,49.9694771 8.96743457,49.7249597 C8.96562538,49.4782193 9.16101797,49.2829758 9.40200217,49.2829758 Z M6.8112411,50.7708276 L11.9855265,50.7708276 L11.9855265,51.1976218 L6.8112411,51.1976218 L6.8112411,50.7708276 Z M2.88819202,52.7217807 L15.1114461,52.7140006 L15.1114461,74.0103615 C10.4361356,74.0385181 5.20612713,74.0574126 2.88819202,74.0385181 L2.88819202,52.7217807 Z" id="Shape"></path>
                <polygon id="Path" points="33.31656 4.32282128 83.6812252 4.32282128 83.6812252 21.1494817 88 21.1494817 88 0 29 0 29 22 33.31656 22"></polygon>
                <polygon id="Path" points="58 43 66 43 66 40.9923278 63.5175726 40.9923278 63.5175726 38.561949 66 38.561949 66 33 58 33"></polygon>
                <path d="M68,24 L68,64 L95,64 L95,24 L68,24 Z M82.0715008,61.991411 C81.3518191,61.991411 80.7704649,61.4135721 80.7704649,60.7062434 C80.7704649,59.9959207 81.3514401,59.42145 82.0715008,59.42145 C82.7915614,59.42145 83.3725366,59.9955464 83.3725366,60.7062434 C83.3725366,61.4135721 82.7911824,61.991411 82.0715008,61.991411 Z M91.0968924,57.3657058 L71.9042446,57.3657058 L71.9042446,27.8528831 L91.1006822,27.8528831 L91.0968924,57.3657058 Z" id="Shape"></path>
                <polygon id="Path" points="11.5965914 28.6346165 52.4011612 28.6346165 52.4011612 53.3619753 21.1431782 53.3619753 21.1431782 57 56 57 56 25 8 25 8 45.6432434 11.5965914 45.6432434"></polygon>
            </g>
        </g>
    </g>
</svg>