<?xml version="1.0" encoding="UTF-8"?>
<svg width="152px" height="85px" viewBox="0 0 152 85" version="1.1" xmlns="http://www.w3.org/2000/svg" xmlns:xlink="http://www.w3.org/1999/xlink">
    <!-- Generator: Sketch 64 (93537) - https://sketch.com -->
    <title>small face</title>
    <desc>Created with Sketch.</desc>
    <g id="Page-1" stroke="none" stroke-width="1" fill="none" fill-rule="evenodd">
        <g id="Mobile" transform="translate(-116.000000, -93.000000)">
            <g id="small-face" transform="translate(115.085814, 92.080057)">
                <g id="mouth" transform="translate(22.000000, 40.000000)">
                    <path d="M0,19 C5.24799633,18.0205102 8.839919,16.381355 10.775768,14.0825343 C12.711617,11.7837136 14.4530277,7.0895355 16,0" id="Line-2" stroke="#000000" stroke-width="2" stroke-linecap="square"></path>
                    <path d="M81.530591,25.8855823 C86.6939898,24.9268967 90.2288762,23.3272667 92.1352501,21.0866924 C94.0416241,18.8461181 95.7588663,14.2728856 97.2869766,7.36699498" id="Line-2-Copy" stroke="#000000" stroke-width="2" stroke-linecap="square" transform="translate(89.408784, 16.626289) rotate(81.000000) translate(-89.408784, -16.626289) "></path>
                    <path d="M17,28.728175 C25.711387,29.0930499 32.4456716,28.8423296 37.2028538,27.976014 C41.9600359,27.1096984 50.1553475,22.451027 61.7887887,14 C59.9759469,18.5145522 58.4545857,21.824007 57.2247051,23.9283644 C55.9948244,26.0327218 54.2635814,28.2885564 52.0309761,30.6958683 L18.1712291,34.3123511 L17,28.728175 Z" id="Rectangle" fill="#FFFFFF" transform="translate(39.394394, 24.156176) rotate(30.000000) translate(-39.394394, -24.156176) "></path>
                    <path d="M18.0760573,17 C13.9167636,33.3864877 16.0071977,42.3136113 24.3473594,43.7813709 C32.6875212,45.2491305 46.2384014,39.3265713 65,26.0136933" id="Line-3" stroke="#000000" stroke-width="2" stroke-linecap="square"></path>
                    <path d="M14,13 C28.7168213,22.3057942 39.883488,27.2784362 47.5,27.9179261 C55.116512,28.557416 66.2831787,25.4599026 81,18.6253861" id="Line" stroke="#000000" stroke-width="4" stroke-linecap="square"></path>
                </g>
                <path d="M32,10 C49.1208272,10 63,7.71428194 63,4.89470582 C63,2.0751297 49.1208272,6.82078044 32,6.82078044 C14.8791728,6.82078044 1,2.0751297 1,4.89470582 C1,7.71428194 14.8791728,10 32,10 Z" id="Oval" fill="#FFFFFF" transform="translate(32.000000, 7.000000) rotate(-2.000000) translate(-32.000000, -7.000000) "></path>
                <path d="M122,8 C139.120827,8 153,5.71428194 153,2.89470582 C153,0.0751296964 139.120827,4.82078044 122,4.82078044 C104.879173,4.82078044 91,0.0751296964 91,2.89470582 C91,5.71428194 104.879173,8 122,8 Z" id="Oval-Copy" fill="#FFFFFF" transform="translate(122.000000, 5.000000) rotate(-2.000000) translate(-122.000000, -5.000000) "></path>
            </g>
        </g>
    </g>
</svg>