<svg width="0" height="0" class="hidden">
  <symbol viewBox="0 0 152 85" xmlns="http://www.w3.org/2000/svg" id="hero-face-small">
    <title>small face</title>
    <g fill="none" fill-rule="evenodd">
      <path d="M21.086 58.08c5.248-.98 8.84-2.619 10.776-4.917 1.935-2.3 3.677-6.993 5.224-14.083m63.031 10.294c1.754 4.95 3.887 8.19 6.399 9.723 2.51 1.532 7.296 2.513 14.356 2.942" stroke="#000" stroke-width="2" stroke-linecap="square"></path>
      <path d="M38.8 55.999c7.362 4.671 13.32 7.821 17.872 9.45 4.553 1.628 13.98 1.691 28.28.189-3.827 3.003-6.8 5.109-8.916 6.316-2.118 1.208-4.745 2.296-7.882 3.264L37.022 61.42 38.8 56z" fill="#FFF"></path>
      <path d="M39.162 56.08c-4.16 16.387-2.069 25.314 6.271 26.781 8.34 1.468 21.891-4.454 40.653-17.767" stroke="#000" stroke-width="2" stroke-linecap="square"></path>
      <path d="M35.086 52.08c14.717 9.306 25.883 14.278 33.5 14.918 7.616.64 18.783-2.458 33.5-9.293" stroke="#000" stroke-width="4" stroke-linecap="square"></path>
      <path d="M31.19 9.078c17.11-.597 30.902-3.366 30.803-6.184C61.895.076 48.19 5.304 31.08 5.901S-.067 2.24.03 5.058c.099 2.818 14.05 4.618 31.16 4.02zm90-2c17.11-.597 30.902-3.366 30.803-6.184-.098-2.818-13.803 2.41-30.913 3.007S89.933.24 90.03 3.058c.099 2.818 14.05 4.618 31.16 4.02z"
        fill="#FFF"></path>
    </g>
  </symbol>
    <symbol viewBox="0 0 785 337" xmlns="http://www.w3.org/2000/svg" id="hero-face-large">
    <title>Group</title>
    <g fill="none" fill-rule="evenodd">
      <path d="M182.61 40.99c99.903-3.49 180.425-19.643 179.851-36.08-.574-16.438-80.595 14.057-180.497 17.545C82.06 25.944.108 1.105.682 17.543 1.256 33.981 82.708 44.478 182.61 40.99zm445.5 1c86.933-3.036 156.94-18.823 156.365-35.26-.574-16.438-70.08 13.69-157.011 16.725-86.932 3.036-158.37-22.17-157.797-5.732.574 16.438 71.512 27.302 158.444 24.266z"
        fill="#FFF"></path>
      <path d="M201 222c23.288-4.279 39.227-11.44 47.817-21.482C257.407 190.476 265.135 169.97 272 139m278.958 41.93c7.869 22.331 17.434 36.954 28.697 43.867 11.262 6.914 32.725 11.339 64.387 13.274" stroke="#000" stroke-width="8" stroke-linecap="square"></path>
      <path d="M279.643 209.568c33.017 21.077 59.735 35.289 80.154 42.635 20.42 7.347 62.697 7.631 126.832.855-17.165 13.55-30.495 23.048-39.99 28.496-9.496 5.448-21.279 10.356-35.349 14.726l-139.62-62.251 7.973-24.46z" fill="#FFF"></path>
      <path d="M276.305 210c-18.643 74.636-9.273 115.297 28.11 121.982 37.382 6.685 98.12-20.29 182.214-80.927" stroke="#000" stroke-width="7" stroke-linecap="square"></path>
      <path d="M263 193c65.677 41.356 115.51 63.455 149.5 66.297C446.49 262.14 496.323 248.374 562 218" stroke="#000" stroke-width="15" stroke-linecap="square"></path>
    </g>
  </symbol>
    <symbol viewBox="0 0 95 79" xmlns="http://www.w3.org/2000/svg" id="responsive">
    <title>responsive-design-for-variety-of-screens-formats</title>
    <path d="M32.603 58.002H21V63h42v-4.66L56.052 58h-23.45v.002zm6.14 3.068h-14.47v-.934h14.47v.934zM0 79h18V48H0v31zm9.228-1.338A1.052 1.052 0 0 1 8.19 76.6c0-.59.467-1.065 1.038-1.065a1.05 1.05 0 0 1 1.037 1.065 1.05 1.05 0 0 1-1.037 1.063zm.174-28.379c.239 0 .433.195.433.442a.44.44 0 0 1-.433.446.442.442 0 0 1-.435-.446.435.435 0 0 1 .435-.442zm-2.59 1.488h5.174v.427H6.81v-.427zm-3.924 1.95l12.223-.007V74.01c-4.675.029-9.905.047-12.223.029V52.722zM33.317 4.323H83.68v16.826H88V0H29v22h4.317zM58 43h8v-2.008h-2.482v-2.43H66V33h-8zm10-19v40h27V24H68zm14.072 37.991c-.72 0-1.302-.577-1.302-1.285 0-.71.581-1.285 1.302-1.285.72 0 1.3.575 1.3 1.285 0 .708-.58 1.285-1.3 1.285zm9.025-4.625H71.904V27.853h19.197l-.004 29.513z"></path>
    <path d="M11.597 28.635H52.4v24.727H21.143V57H56V25H8v20.643h3.597z"></path>
  </symbol>
   <symbol viewBox="0 0 375 14" xmlns="http://www.w3.org/2000/svg" id="skills-dec">
    <title>Rectangle</title>
    <path d="M0 0h375v3.44c-83.067 7.035-145.567 10.553-187.5 10.553-41.933 0-104.433-3.518-187.5-10.553V0z" fill="#EBEBEB" fill-rule="evenodd"></path>
  </symbol>
  <symbol viewBox="0 0 66 4" xmlns="http://www.w3.org/2000/svg" id="phone-shadow">
    <title>Oval</title>
    <ellipse cx="296" cy="1517" rx="33" ry="2" transform="translate(-263 -1515)" fill="#D8D8D8" fill-rule="evenodd"></ellipse>
  </symbol>
    <symbol aria-hidden="true" data-prefix="fab" data-icon="codepen" xmlns="http://www.w3.org/2000/svg" viewBox="0 0 512 512" id="codepen-brands">
    <path fill="currentColor" d="M502.285 159.704l-234-156c-7.987-4.915-16.511-4.96-24.571 0l-234 156C3.714 163.703 0 170.847 0 177.989v155.999c0 7.143 3.714 14.286 9.715 18.286l234 156.022c7.987 4.915 16.511 4.96 24.571 0l234-156.022c6-3.999 9.715-11.143 9.715-18.286V177.989c-.001-7.142-3.715-14.286-9.716-18.285zM278 63.131l172.286 114.858-76.857 51.429L278 165.703V63.131zm-44 0v102.572l-95.429 63.715-76.857-51.429L234 63.131zM44 219.132l55.143 36.857L44 292.846v-73.714zm190 229.715L61.714 333.989l76.857-51.429L234 346.275v102.572zm22-140.858l-77.715-52 77.715-52 77.715 52-77.715 52zm22 140.858V346.275l95.429-63.715 76.857 51.429L278 448.847zm190-156.001l-55.143-36.857L468 219.132v73.714z"></path>
  </symbol>
  <symbol aria-hidden="true" data-prefix="far" data-icon="envelope" xmlns="http://www.w3.org/2000/svg" viewBox="0 0 512 512" id="envelope-regular">
    <path fill="currentColor" d="M464 64H48C21.49 64 0 85.49 0 112v288c0 26.51 21.49 48 48 48h416c26.51 0 48-21.49 48-48V112c0-26.51-21.49-48-48-48zm0 48v40.805c-22.422 18.259-58.168 46.651-134.587 106.49-16.841 13.247-50.201 45.072-73.413 44.701-23.208.375-56.579-31.459-73.413-44.701C106.18 199.465 70.425 171.067 48 152.805V112h416zM48 400V214.398c22.914 18.251 55.409 43.862 104.938 82.646 21.857 17.205 60.134 55.186 103.062 54.955 42.717.231 80.509-37.199 103.053-54.947 49.528-38.783 82.032-64.401 104.947-82.653V400H48z"></path>
  </symbol>
    <symbol aria-hidden="true" data-prefix="fab" data-icon="github" xmlns="http://www.w3.org/2000/svg" viewBox="0 0 496 512" id="github-brands">
    <path fill="currentColor" d="M165.9 397.4c0 2-2.3 3.6-5.2 3.6-3.3.3-5.6-1.3-5.6-3.6 0-2 2.3-3.6 5.2-3.6 3-.3 5.6 1.3 5.6 3.6zm-31.1-4.5c-.7 2 1.3 4.3 4.3 4.9 2.6 1 5.6 0 6.2-2s-1.3-4.3-4.3-5.2c-2.6-.7-5.5.3-6.2 2.3zm44.2-1.7c-2.9.7-4.9 2.6-4.6 4.9.3 2 2.9 3.3 5.9 2.6 2.9-.7 4.9-2.6 4.6-4.6-.3-1.9-3-3.2-5.9-2.9zM244.8 8C106.1 8 0 113.3 0 252c0 110.9 69.8 205.8 169.5 239.2 12.8 2.3 17.3-5.6 17.3-12.1 0-6.2-.3-40.4-.3-61.4 0 0-70 15-84.7-29.8 0 0-11.4-29.1-27.8-36.6 0 0-22.9-15.7 1.6-15.4 0 0 24.9 2 38.6 25.8 21.9 38.6 58.6 27.5 72.9 20.9 2.3-16 8.8-27.1 16-33.7-55.9-6.2-112.3-14.3-112.3-110.5 0-27.5 7.6-41.3 23.6-58.9-2.6-6.5-11.1-33.3 2.6-67.9 20.9-6.5 69 27 69 27 20-5.6 41.5-8.5 62.8-8.5s42.8 2.9 62.8 8.5c0 0 48.1-33.6 69-27 13.7 34.7 5.2 61.4 2.6 67.9 16 17.7 25.8 31.5 25.8 58.9 0 96.5-58.9 104.2-114.8 110.5 9.2 7.9 17 22.9 17 46.4 0 33.7-.3 75.4-.3 83.6 0 6.5 4.6 14.4 17.3 12.1C428.2 457.8 496 362.9 496 252 496 113.3 383.5 8 244.8 8zM97.2 352.9c-1.3 1-1 3.3.7 5.2 1.6 1.6 3.9 2.3 5.2 1 1.3-1 1-3.3-.7-5.2-1.6-1.6-3.9-2.3-5.2-1zm-10.8-8.1c-.7 1.3.3 2.9 2.3 3.9 1.6 1 3.6.7 4.3-.7.7-1.3-.3-2.9-2.3-3.9-2-.6-3.6-.3-4.3.7zm32.4 35.6c-1.6 1.3-1 4.3 1.3 6.2 2.3 2.3 5.2 2.6 6.5 1 1.3-1.3.7-4.3-1.3-6.2-2.2-2.3-5.2-2.6-6.5-1zm-11.4-14.7c-1.6 1-1.6 3.6 0 5.9 1.6 2.3 4.3 3.3 5.6 2.3 1.6-1.3 1.6-3.9 0-6.2-1.4-2.3-4-3.3-5.6-2z"></path>
  </symbol>
   <symbol aria-hidden="true" data-prefix="fab" data-icon="linkedin-in" xmlns="http://www.w3.org/2000/svg" viewBox="0 0 448 512" id="linkedin-in-brands">
    <path fill="currentColor" d="M100.28 448H7.4V148.9h92.88zM53.79 108.1C24.09 108.1 0 83.5 0 53.8a53.79 53.79 0 0 1 107.58 0c0 29.7-24.1 54.3-53.79 54.3zM447.9 448h-92.68V302.4c0-34.7-.7-79.2-48.29-79.2-48.29 0-55.69 37.7-55.69 76.7V448h-92.78V148.9h89.08v40.8h1.3c12.4-23.5 42.69-48.3 87.88-48.3 94 0 111.28 61.9 111.28 142.3V448z"></path>
  </symbol>

</svg>